PathFileType	4	(X/Y/Z)	Patient4_TMGait_0pt8_01_right_44.trc.trc
DataRate	CameraRate	NumFrames	NumMarkers	Units	OrigDataRate	OrigDataStartFrame	OrigNumFrames
86.419753086420	86.419753086420	4	33	mm	86.419753086420	36	       141
Frame#	Time	Sacral			L.Shoulder			Chest			R.Shoulder			Neck			R.ASIS			L.ASIS			R.Thigh.Superior			R.Thigh.Lateral			R.Thigh.Inferior			R.Patella			L.Thigh.Superior			L.Thigh.Lateral			L.Thigh.Inferior			L.Patella			L.Shank.Superior			L.Shank.Lateral			L.Shank.Inferior			R.Shank.Superior			R.Shank.Lateral			R.Shank.Inferior			R.Heel			R.Midfoot.Superior			R.Midfoot.Lateral			R.Toe			L.Heel			L.Midfoot.Lateral			L.Midfoot.Superior			L.Toe			L.Elbow			L.Wrist			R.Elbow			R.Wrist			
		X1	Y1	Z1	X2	Y2	Z2	X3	Y3	Z3	X4	Y4	Z4	X5	Y5	Z5	X6	Y6	Z6	X7	Y7	Z7	X8	Y8	Z8	X9	Y9	Z9	X10	Y10	Z10	X11	Y11	Z11	X12	Y12	Z12	X13	Y13	Z13	X14	Y14	Z14	X15	Y15	Z15	X16	Y16	Z16	X17	Y17	Z17	X18	Y18	Z18	X19	Y19	Z19	X20	Y20	Z20	X21	Y21	Z21	X22	Y22	Z22	X23	Y23	Z23	X24	Y24	Z24	X25	Y25	Z25	X26	Y26	Z26	X27	Y27	Z27	X28	Y28	Z28	X29	Y29	Z29	X30	Y30	Z30	X31	Y31	Z31	X32	Y32	Z32	X33	Y33	Z33	

36	49.865000000000	936.416025336750	1000.248111895383	490.559468158622	1121.685815136313	1430.665294693219	316.303499584377	1214.843658871271	1361.754800310558	483.234208664090	1118.177893426828	1432.163236062302	651.598646671063	1091.107861470374	1488.776281638514	470.504802768616	1161.588941216729	938.306943570902	616.173548545431	1153.847054628468	954.244825422751	341.548439615250	1227.089123285205	751.659111406663	585.143377376863	1159.748649973453	633.573275209405	645.060910365590	1244.714831048837	591.362284622152	566.289539366490	1258.479208360802	502.172520114575	574.416037354077	1168.989181924916	726.201423660092	360.032198279299	1064.608396695689	623.115816779015	294.983021683680	1142.505696864478	528.553601364966	348.081694177034	1125.401491253796	445.900795703830	344.304863383411	1054.891712869386	393.505799133164	341.225589223410	911.102126652382	353.428881246760	300.635433431509	897.933557104779	224.779208712765	356.602169252001	1236.466037428139	411.545524951597	580.565634154484	1172.646645773464	302.399370084908	640.253987572324	1223.829732944394	210.816913893930	579.215149185211	1101.019493117119	43.805890512685	547.749049943131	1271.209000539230	97.751027200757	584.664987792318	1183.747561951945	38.038969697678	623.585192569828	1391.919924297149	44.929894851718	614.611659744552	708.906516027902	159.920521793858	405.475236414442	762.357078927660	107.589622680491	328.040348966629	867.071423969628	120.063693880188	343.438920851392	945.881330206513	31.614765892881	324.750718107710	1181.151250513926	1099.712014997259	169.382013582143	1435.630758577985	1094.424906853841	194.021548851948	988.834597846332	1105.273206232788	748.385055267256	961.270602582707	847.774803363664	765.413380589892	
37	49.876571428571	936.759311503969	1001.545313569914	494.439977997372	1120.614127140730	1431.754785726444	318.063176058494	1214.982059341788	1363.243547215940	484.500468104937	1119.334224970561	1433.929953516715	653.276614148904	1090.932478622690	1490.105747967051	472.235331558782	1162.214484964643	939.955349483028	618.862560200156	1153.257116349852	955.294808389757	344.692983737490	1225.325529579944	750.917263105090	588.667751555310	1155.720301944233	633.840431140738	647.598725715748	1240.105647307829	590.661778090629	568.759795942240	1252.347520406684	501.505581049323	576.214108087078	1174.390464857098	728.788064862319	362.642253657791	1074.387528479703	623.096901011125	296.360632791513	1155.261043463036	530.184943024604	349.282582607694	1139.221645169267	446.330327579699	344.839540691713	1066.677416799477	394.224740634799	341.625366465850	921.495829829161	359.705723925801	300.559853993566	903.557089661539	231.423568010331	355.807085330626	1229.872156909372	411.161053833147	582.164583060732	1165.322833447385	302.300684628745	641.419121899032	1215.728959814075	210.575023189623	579.873636925976	1091.902977189595	43.827302457487	547.920147863518	1262.133618406922	97.857452848679	585.041079174236	1174.578760410246	38.075724905149	623.736287053464	1382.761816155474	44.718485702314	614.896623963199	712.362121716119	178.055783283812	403.611908605074	762.392138927471	121.340142469660	326.716560447781	867.754000543419	126.007883120776	342.518671157192	938.584086369528	30.136650858606	324.740026877232	1173.584581015633	1097.763517799755	174.383160994275	1428.312822636656	1078.680150270147	195.951626535851	998.149894614274	1103.373289180212	752.134220969502	983.641520254610	844.434622075966	767.861199443806	
38	49.888142857143	936.881410440164	1002.705242921300	498.262729897548	1119.242604280250	1432.627032544048	319.683003221553	1214.959407169488	1364.553212039080	485.566238978589	1120.449826055406	1435.458562991259	654.864873587861	1090.642065855180	1491.245363898315	473.877526573892	1162.652438230464	941.381953289258	621.356117829520	1152.348270752349	956.064372190103	347.706828252299	1223.228609227491	750.005947372569	592.218045985838	1151.330950616727	633.998642192371	650.108462712071	1235.164824433572	589.865025785500	571.254625082253	1245.865684927146	500.809066491713	578.049348185491	1179.721704514694	731.565113450833	365.211272608143	1084.207332282772	623.386076332310	297.757536242983	1167.866068078836	532.308045285511	350.816309190408	1153.126232026186	447.340855011791	345.939937521857	1078.854302274666	395.341094621541	342.428329568177	932.692764811834	365.965414990536	300.482127919103	910.138013881526	238.263275639366	355.271211579415	1222.995392146750	410.744890622997	583.774233971066	1157.738346581496	302.136551586427	642.560908210114	1207.483185744160	210.312116892280	580.556285435921	1082.720818266108	43.844486825804	548.079362102552	1253.060783634453	97.947230945240	585.478129598605	1165.346535261767	38.073143143517	623.867476293565	1373.556315198757	44.417343959864	615.144059158403	717.342409301285	195.893436934516	401.678167560180	764.111906266433	135.345537531548	325.284714921649	869.687146826697	132.532844685065	341.805167288052	932.627002291230	28.953273341850	324.675988459630	1166.038786584252	1095.775490225281	179.353777492803	1420.169038338428	1061.692697579593	197.768494180781	1007.744970364087	1101.487722667770	755.965787208170	1007.203302864035	841.713620090336	770.153843506011	
39	49.899714285714	936.766886499237	1003.748594454569	501.978670235262	1117.623203133328	1433.280652672713	321.153134454293	1214.787599067013	1365.665669087614	486.436196559231	1121.534282015675	1436.741404387817	656.359013801921	1090.266752004746	1492.209845329501	475.421595750849	1162.887703142497	942.595449624489	623.659187920839	1151.132581531368	956.553810032286	350.532897324005	1220.868964658593	749.024987968143	595.693044301431	1146.729137108846	634.096802865483	652.557984849550	1230.010177911343	589.020933239722	573.722136807732	1239.156043254883	500.112720031367	579.896363637263	1184.851000796468	734.554497863521	367.787038288378	1093.895034973332	624.060988491245	299.202462207112	1180.133417152131	534.972955977287	352.681102744698	1166.930793540593	448.974633875553	347.539412078305	1091.246739077089	396.900689774535	343.593116573044	944.474058841671	372.108337111191	300.444121286213	917.628154331061	245.110261516801	354.987061993450	1215.942488423721	410.317186687151	585.362482350583	1149.994631717968	301.943792345715	643.680615935448	1199.149703008960	210.043494266768	581.250970990712	1073.485496619559	43.871920326907	548.238178614229	1244.002858724726	98.027023145884	585.964587774779	1156.066855873885	38.046475139891	623.991130698955	1364.318751717016	44.043546861604	615.363377511189	723.726679148395	212.720482299375	399.746834288977	767.597804536741	149.011651740477	323.787928580006	873.028509925152	139.409143089416	341.264420783635	928.555128854326	28.277628558843	324.518341473893	1158.593011681149	1093.723902831148	184.275160031931	1411.041991453080	1043.579165819157	199.471170428568	1017.664978423598	1099.615651031747	759.845370950759	1031.838182045881	839.762131387532	772.246762939608	
